<svg id="dfc17bbf19e0b8ae0c6008919eb563fc" xmlns="http://www.w3.org/2000/svg" width="253.629" height="253.629" viewBox="0 0 253.629 253.629">
  <path id="Path_15" data-name="Path 15" d="M0,0H253.629V253.629H0Z" fill="rgba(0,0,0,0)" fill-rule="evenodd"/>
  <g id="Group_11" data-name="Group 11" transform="translate(10.568 10.568)">
    <circle id="Ellipse_30" data-name="Ellipse 30" cx="95" cy="95" r="95" transform="translate(21.432 21.432)" fill="#3061aa"/>
    <path id="Path_16" data-name="Path 16" d="M105.679,143.575V63.407a10.568,10.568,0,0,1,21.136,0v80.168l24.232-24.232a10.567,10.567,0,1,1,14.944,14.944l-42.273,42.27a10.568,10.568,0,0,1-14.943,0L66.5,134.286a10.567,10.567,0,1,1,14.944-14.944Zm10.568,88.918A116.247,116.247,0,1,1,232.493,116.247,116.248,116.248,0,0,1,116.247,232.493Zm0-21.136a95.111,95.111,0,1,0-95.111-95.111A95.111,95.111,0,0,0,116.247,211.357Z" fill="#fff"/>
  </g>
</svg>
