<svg xmlns="http://www.w3.org/2000/svg" width="290.629" height="288" viewBox="0 0 290.629 288">
  <g id="Group_15" data-name="Group 15" transform="translate(-2659 -1129)">
    <path id="Path_18" data-name="Path 18" d="M0,0H253.629V253.629H0Z" transform="translate(2696 1156)" fill="rgba(0,0,0,0)" fill-rule="evenodd"/>
    <g id="Group_13" data-name="Group 13" transform="translate(2686.568 1156.568)">
      <circle id="Ellipse_30" data-name="Ellipse 30" cx="144" cy="144" r="144" transform="translate(-27.568 -27.568)" fill="#3061aa"/>
      <path id="Path_16" data-name="Path 16" d="M105.679,143.575V63.407a10.568,10.568,0,0,1,21.136,0v80.168l24.232-24.232a10.567,10.567,0,1,1,14.944,14.944l-42.273,42.27a10.568,10.568,0,0,1-14.943,0L66.5,134.286a10.567,10.567,0,1,1,14.944-14.944Zm10.568,88.918A116.247,116.247,0,1,1,232.493,116.247,116.248,116.248,0,0,1,116.247,232.493Zm0-21.136a95.111,95.111,0,1,0-95.111-95.111A95.111,95.111,0,0,0,116.247,211.357Z" transform="translate(0.186 0.186)" fill="#fff"/>
    </g>
  </g>
</svg>
