<?xml version="1.0" encoding="UTF-8"?>
<svg width="752pt" height="752pt" version="1.1" viewBox="0 0 752 752" xmlns="http://www.w3.org/2000/svg">
 <g>
  <path d="m370.65 339.79c0-53.402-43.285-96.691-96.691-96.691s-92.168 41.797-96.691 95.012c-6.9062 81.195 54.777 149.18 129.67 170.8-25.527-15.434-43.332-42.277-46.301-73.496 4.3711 0.62109 8.793 1.0625 13.328 1.0625 53.402 0 96.688-43.285 96.688-96.691z"/>
  <path d="m574.91 339.79c0-53.402-43.285-96.691-96.695-96.691-53.402 0-92.168 41.797-96.695 95.012-6.9062 81.195 54.777 149.18 129.67 170.8-25.527-15.434-43.328-42.277-46.301-73.496 4.3711 0.62109 8.8008 1.0625 13.328 1.0625 53.406 0 96.691-43.285 96.691-96.691z"/>
 </g>
</svg>
