<svg xmlns="http://www.w3.org/2000/svg" xmlns:xlink="http://www.w3.org/1999/xlink" width="830.722" height="1209.001" viewBox="0 0 830.722 1209.001">
  <defs>
    <clipPath id="clip-path">
      <rect id="Rectangle_17" data-name="Rectangle 17" width="191" height="191"/>
    </clipPath>
  </defs>
  <g id="Group_16" data-name="Group 16" transform="translate(-1504.539 -495.921)">
    <g id="_4e02c6b3c00355deeb892f9de7c87a3a" data-name="4e02c6b3c00355deeb892f9de7c87a3a" transform="translate(2021 1026.782)">
      <rect id="Rectangle_11" data-name="Rectangle 11" width="65" height="65" transform="translate(0 0.218)" fill="none"/>
      <path id="Path_7" data-name="Path 7" d="M28.11,88,16,98.092l12.11,10.092" transform="translate(-11.963 -65.673)" fill="none" stroke="#000" stroke-linecap="round" stroke-linejoin="round" stroke-width="8"/>
      <path id="Path_8" data-name="Path 8" d="M192,88l12.11,10.092L192,108.184" transform="translate(-143.559 -65.673)" fill="none" stroke="#000" stroke-linecap="round" stroke-linejoin="round" stroke-width="8"/>
      <line id="Line_1" data-name="Line 1" x1="17" y2="44" transform="translate(24 10.218)" fill="none" stroke="#000" stroke-linecap="round" stroke-linejoin="round" stroke-width="8"/>
    </g>
    <g id="Subtraction_8" data-name="Subtraction 8" transform="translate(1518.738 1106.922)" fill="#3d6aae" opacity="0.1">
      <path d="M 408.2614440917969 597.5001831054688 C 394.7999572753906 597.5001831054688 381.2211608886719 596.4744873046875 367.90234375 594.4514770507812 C 354.7687377929688 592.4564819335938 341.5664672851562 589.4434814453125 328.6620483398438 585.4962158203125 C 315.9183654785156 581.597900390625 303.1538391113281 576.6934814453125 290.7229614257812 570.9193115234375 C 278.4278564453125 565.2080078125 266.1630554199219 558.5081176757812 254.2692565917969 551.0059204101562 C 242.4848480224609 543.5725708007812 230.7822570800781 535.1732177734375 219.4865570068359 526.041015625 C 208.2730560302734 516.9749755859375 197.1952514648438 506.9720764160156 186.5610504150391 496.3101806640625 C 175.9806518554688 485.7016906738281 165.5905456542969 474.1914978027344 155.6793518066406 462.0990905761719 C 145.7965545654297 450.0411987304688 136.1571502685547 437.1203002929688 127.0287551879883 423.6954040527344 C 117.904655456543 410.2763061523438 109.0784530639648 396.0409851074219 100.7953491210938 381.3849792480469 C 92.49695587158203 366.7016906738281 84.54685211181641 351.2489013671875 77.16595458984375 335.4559020996094 C 69.75685119628906 319.6024780273438 62.74565124511719 303.0287780761719 56.32685089111328 286.1951904296875 C 49.86995315551758 269.2621765136719 43.86015319824219 251.6643981933594 38.46435165405273 233.8904876708984 C 33.02535247802734 215.9752960205078 28.07955169677734 197.4501953125 23.76435279846191 178.82958984375 C 19.40685272216797 160.0260925292969 15.58775234222412 140.6700897216797 12.41305255889893 121.2992935180664 C 9.200952529907227 101.6993942260742 6.570952415466309 81.60958862304688 4.596152305603027 61.58798980712891 C 2.611587047576904 41.46665954589844 1.239781498908997 20.91751861572266 0.5179119110107422 0.4999915659427643 L 816.0048828125 0.4999915659427643 C 815.283203125 20.91625022888184 813.9113159179688 41.46537017822266 811.9264526367188 61.58798980712891 C 809.9513549804688 81.61289215087891 807.3214721679688 101.7026901245117 804.1096801757812 121.2992935180664 C 800.935546875 140.6669921875 797.1165771484375 160.0229949951172 792.758544921875 178.82958984375 C 788.4437255859375 197.4491882324219 783.4978637695312 215.9742889404297 778.0585327148438 233.8903961181641 C 772.6631469726562 251.6621856689453 766.6533813476562 269.2599792480469 760.1959228515625 286.1951904296875 C 753.7779541015625 303.0267944335938 746.7666625976562 319.6004943847656 739.3567504882812 335.4559020996094 C 731.9761352539062 351.2485961914062 724.026123046875 366.7013854980469 715.7274780273438 381.3849792480469 C 707.4424438476562 396.0438842773438 698.6162719726562 410.2792053222656 689.4939575195312 423.6954040527344 C 680.365478515625 437.12060546875 670.7259521484375 450.04150390625 660.84326171875 462.0990905761719 C 650.932373046875 474.1912841796875 640.5423583984375 485.7015991210938 629.961669921875 496.3101806640625 C 619.3277587890625 506.9719848632812 608.2500610351562 516.9749145507812 597.0362548828125 526.041015625 C 585.7422485351562 535.172119140625 574.0396728515625 543.5714721679688 562.2535400390625 551.0059204101562 C 550.3603515625 558.5078735351562 538.0955810546875 565.2077026367188 525.7999267578125 570.9193115234375 C 513.369140625 576.6934814453125 500.6046447753906 581.5977783203125 487.8606567382812 585.4962158203125 C 474.9539489746094 589.444091796875 461.7515563964844 592.4570922851562 448.620361328125 594.4514770507812 C 435.3015441894531 596.4744873046875 421.7228393554688 597.5001831054688 408.2614440917969 597.5001831054688 Z" stroke="none"/>
      <path d="M 1.03594970703125 1 C 1.76214599609375 21.23492431640625 3.126953125 41.59783935546875 5.09375 61.53887939453125 C 7.067626953125 81.55120849609375 9.69622802734375 101.6302795410156 12.90643310546875 121.218505859375 C 16.079345703125 140.5780944824219 19.896240234375 159.9232788085938 24.2513427734375 178.7165832519531 C 28.5643310546875 197.3270874023438 33.50726318359375 215.8414001464844 38.94287109375 233.7451782226562 C 44.3353271484375 251.5084838867188 50.34136962890625 269.0953063964844 56.7940673828125 286.0169982910156 C 63.20794677734375 302.8381958007812 70.2144775390625 319.4006042480469 77.61883544921875 335.2442016601562 C 84.99432373046875 351.0255737304688 92.93853759765625 366.466796875 101.2306518554688 381.1389770507812 C 109.5076293945312 395.7840881347656 118.3264770507812 410.0075073242188 127.442138671875 423.4140930175781 C 136.5625610351562 436.8272094726562 146.1929321289062 449.7359924316406 156.0660400390625 461.7821960449219 C 165.9666748046875 473.8616027832031 176.3457641601562 485.3596801757812 186.9150390625 495.9570007324219 C 197.5367431640625 506.6065063476562 208.6011352539062 516.5972900390625 219.8008422851562 525.652099609375 C 231.0808715820312 534.7716674804688 242.767333984375 543.15966796875 254.5359497070312 550.5830078125 C 266.4114379882812 558.0736694335938 278.6573486328125 564.76318359375 290.9336547851562 570.4658203125 C 303.3434448242188 576.2301635742188 316.0863647460938 581.1262817382812 328.8082580566406 585.0180053710938 C 341.689453125 588.9581909179688 354.8678588867188 591.9658203125 367.9774475097656 593.9570922851562 C 381.2721557617188 595.9763793945312 394.8256530761719 597.0001831054688 408.2614440917969 597.0001831054688 C 421.6971435546875 597.0001831054688 435.2505493164062 595.9763793945312 448.5452575683594 593.9570922851562 C 461.6525573730469 591.9663696289062 474.8309631347656 588.9588623046875 487.7144470214844 585.0180053710938 C 500.4364624023438 581.1262817382812 513.1793212890625 576.2301635742188 525.589111328125 570.4658203125 C 537.865966796875 564.7630004882812 550.11181640625 558.073486328125 561.98681640625 550.5830078125 C 573.757080078125 543.1585693359375 585.4435424804688 534.7705688476562 596.721923828125 525.652099609375 C 607.92236328125 516.5968017578125 618.9866333007812 506.6058959960938 629.607666015625 495.9570007324219 C 640.1761474609375 485.360595703125 650.5552368164062 473.8626098632812 660.45654296875 461.7821960449219 C 670.3299560546875 449.7359008789062 679.96044921875 436.8269958496094 689.08056640625 423.4140930175781 C 698.1954345703125 410.0086975097656 707.0143432617188 395.7852783203125 715.2921752929688 381.1389770507812 C 723.5848388671875 366.4658813476562 731.5289306640625 351.0246887207031 738.9037475585938 335.2442016601562 C 746.3084716796875 319.3997802734375 753.31494140625 302.83740234375 759.728759765625 286.0169982910156 C 766.1815795898438 269.0939025878906 772.1875610351562 251.5072021484375 777.580078125 233.7451782226562 C 783.0167236328125 215.8376770019531 787.9595336914062 197.323486328125 792.2713623046875 178.7167053222656 C 796.6270751953125 159.9197998046875 800.4440307617188 140.5745849609375 803.6162719726562 121.218505859375 C 806.8260498046875 101.6334838867188 809.4546508789062 81.55438232421875 811.4287719726562 61.53887939453125 C 813.395751953125 41.5975341796875 814.7605590820312 21.2347412109375 815.4866943359375 1 L 1.03594970703125 1 M -6.103515625e-05 0 L 816.5226440429688 0 C 815.8056640625 20.5963134765625 814.4266357421875 41.33416748046875 812.4239501953125 61.6370849609375 C 810.44775390625 81.6732177734375 807.8164672851562 101.773681640625 804.60302734375 121.3801879882812 C 801.4271240234375 140.7590026855469 797.6058349609375 160.1257019042969 793.2455444335938 178.9423828125 C 788.9287719726562 197.5708923339844 783.9800415039062 216.1069946289062 778.5369262695312 234.0357055664062 C 773.1376342773438 251.8200988769531 767.1240234375 269.4288940429688 760.6631469726562 286.373291015625 C 754.2413330078125 303.214599609375 747.225341796875 319.7996826171875 739.8097534179688 335.6676025390625 C 732.4237670898438 351.4718933105469 724.4676513671875 366.936279296875 716.1627197265625 381.6309814453125 C 707.871826171875 396.3003845214844 699.038330078125 410.5474853515625 689.907470703125 423.9763793945312 C 680.770751953125 437.4136962890625 671.1222534179688 450.3466796875 661.22998046875 462.4160766601562 C 651.3080444335938 474.5216064453125 640.9070434570312 486.0438842773438 630.315673828125 496.6632080078125 C 619.66943359375 507.33740234375 608.5782470703125 517.3524169921875 597.3506469726562 526.4296875 C 586.0416259765625 535.572998046875 574.3229370117188 543.98388671875 562.5203857421875 551.4287719726562 C 550.60888671875 558.9422607421875 538.3251953125 565.6522827148438 526.010498046875 571.3726806640625 C 513.5591430664062 577.1563720703125 500.77294921875 582.069091796875 488.0069580078125 585.9743041992188 C 475.0781555175781 589.9290161132812 461.85205078125 592.9475708007812 448.6954650878906 594.94580078125 C 435.3515625 596.9724731445312 421.7477416992188 598.0001831054688 408.2614440917969 598.0001831054688 C 394.775146484375 598.0001831054688 381.171142578125 596.9724731445312 367.8272399902344 594.94580078125 C 354.670654296875 592.947265625 341.4443664550781 589.9290161132812 328.5157470703125 585.9743041992188 C 315.7495422363281 582.0689697265625 302.9632568359375 577.1561889648438 290.5123291015625 571.3726806640625 C 278.19775390625 565.6522827148438 265.9141235351562 558.9422607421875 254.00244140625 551.4287719726562 C 242.1995239257812 543.9837646484375 230.4811401367188 535.5728149414062 219.1721801757812 526.4296875 C 207.945068359375 517.352783203125 196.8539428710938 507.337890625 186.20703125 496.6632080078125 C 175.61572265625 486.0438842773438 165.2145385742188 474.5216064453125 155.2926635742188 462.4160766601562 C 145.3998413085938 450.3458862304688 135.75146484375 437.4127807617188 126.615234375 423.9763793945312 C 117.484375 410.5474853515625 108.6507568359375 396.3003845214844 100.3600463867188 381.6309814453125 C 92.05572509765625 366.9372863769531 84.09967041015625 351.4729919433594 76.71295166015625 335.6676025390625 C 69.29718017578125 319.7996826171875 62.28125 303.214599609375 55.85968017578125 286.373291015625 C 49.39825439453125 269.4285888671875 43.384765625 251.819580078125 37.9859619140625 234.0357055664062 C 32.5435791015625 216.1094055175781 27.5948486328125 197.5731811523438 23.27716064453125 178.9423828125 C 18.91717529296875 160.1277770996094 15.095947265625 140.7610778808594 11.919677734375 121.3801879882812 C 8.7059326171875 101.7711791992188 6.07452392578125 81.6707763671875 4.09857177734375 61.6370849609375 C 2.0966796875 41.340087890625 0.71734619140625 20.60296630859375 -6.103515625e-05 0 Z" stroke="none" fill="#707070"/>
    </g>
    <path id="Google_Docs" data-name="Google Docs" d="M252.911,72.1l-70-70a7,7,0,0,0-4.9-2.1H31A28,28,0,0,0,3,28V308.013a28,28,0,0,0,28,28H227.01a28,28,0,0,0,28-28V77a7,7,0,0,0-2.1-4.9ZM136.006,252.011H66a7,7,0,0,1,0-14h70a7,7,0,0,1,0,14Zm56-28H66a7,7,0,0,1,0-14H192.008a7,7,0,0,1,0,14Zm0-28H66a7,7,0,0,1,0-14H192.008a7,7,0,0,1,0,14Zm0-28H66a7,7,0,0,1,0-14H192.008a7,7,0,0,1,0,14Zm7-98a14,14,0,0,1-14-14V23.941L231.07,70Z" transform="translate(1569 929.992)" fill="#303c42" opacity="0.14"/>
    <g id="_64514108c303f0def8f31758cee0e240" data-name="64514108c303f0def8f31758cee0e240" transform="matrix(0.951, -0.309, 0.309, 0.951, 2023.163, 1036.685)" clip-path="url(#clip-path)">
      <path id="Path_9" data-name="Path 9" d="M13.917,118.033h29.1a10.088,10.088,0,0,1,6.209,2.571l33.358,33.361c4.26,4.257,7.716,2.824,7.716-3.2V12.552c0-6.021-3.456-7.454-7.716-3.194L49.223,42.716a10.071,10.071,0,0,1-6.209,2.571h-29.1A10.919,10.919,0,0,0,3,56.2v50.92A10.917,10.917,0,0,0,13.917,118.033Z" transform="translate(5.945 13.668)"/>
      <path id="Path_10" data-name="Path 10" d="M95.142,91.375h0A77.922,77.922,0,0,0,80.267,45.582,80.163,80.163,0,0,0,42.259,17.14l-3.447-1.221A3.637,3.637,0,0,1,36.6,11.277l2.437-6.858a3.638,3.638,0,0,1,4.645-2.208L47.1,3.427A94.63,94.63,0,0,1,92.053,37.035a92.539,92.539,0,0,1,17.64,54.34h0a92.513,92.513,0,0,1-17.64,54.3A94.7,94.7,0,0,1,47.1,179.324l-3.414,1.216a3.638,3.638,0,0,1-4.645-2.208L36.6,171.473a3.637,3.637,0,0,1,2.211-4.642l3.447-1.221a80.163,80.163,0,0,0,38.008-28.442A77.922,77.922,0,0,0,95.142,91.375Zm14.55,0Zm0,0" transform="translate(72.025 3.958)" fill-rule="evenodd"/>
      <path id="Path_11" data-name="Path 11" d="M41.578,29.481l-3.262-1.639A3.641,3.641,0,0,1,36.7,22.957l3.28-6.521a3.628,3.628,0,0,1,4.88-1.609l3.226,1.633A62.17,62.17,0,0,1,71.62,37.084a52.739,52.739,0,0,1,0,59.321,62.2,62.2,0,0,1-23.533,20.625l-3.226,1.63a3.631,3.631,0,0,1-4.883-1.606L36.7,110.566a3.636,3.636,0,0,1,1.612-4.883l3.262-1.639a47.944,47.944,0,0,0,18-15.787,38.207,38.207,0,0,0,0-42.99A47.638,47.638,0,0,0,41.578,29.481Z" transform="translate(71.869 28.571)"/>
    </g>
    <g id="_64514108c303f0def8f31758cee0e240-2" data-name="64514108c303f0def8f31758cee0e240" transform="matrix(0.951, -0.309, 0.309, 0.951, 2028.163, 1032.607)" opacity="0.14" clip-path="url(#clip-path)">
      <path id="Path_12" data-name="Path 12" d="M13.917,118.033h29.1a10.088,10.088,0,0,1,6.209,2.571l33.358,33.361c4.26,4.257,7.716,2.824,7.716-3.2V12.552c0-6.021-3.456-7.454-7.716-3.194L49.223,42.716a10.071,10.071,0,0,1-6.209,2.571h-29.1A10.919,10.919,0,0,0,3,56.2v50.92A10.917,10.917,0,0,0,13.917,118.033Z" transform="translate(5.945 13.668)"/>
      <path id="Path_13" data-name="Path 13" d="M95.142,91.375h0A77.922,77.922,0,0,0,80.267,45.582,80.163,80.163,0,0,0,42.259,17.14l-3.447-1.221A3.637,3.637,0,0,1,36.6,11.277l2.437-6.858a3.638,3.638,0,0,1,4.645-2.208L47.1,3.427A94.63,94.63,0,0,1,92.053,37.035a92.539,92.539,0,0,1,17.64,54.34h0a92.513,92.513,0,0,1-17.64,54.3A94.7,94.7,0,0,1,47.1,179.324l-3.414,1.216a3.638,3.638,0,0,1-4.645-2.208L36.6,171.473a3.637,3.637,0,0,1,2.211-4.642l3.447-1.221a80.163,80.163,0,0,0,38.008-28.442A77.922,77.922,0,0,0,95.142,91.375Zm14.55,0Zm0,0" transform="translate(72.025 3.958)" fill-rule="evenodd"/>
      <path id="Path_14" data-name="Path 14" d="M41.578,29.481l-3.262-1.639A3.641,3.641,0,0,1,36.7,22.957l3.28-6.521a3.628,3.628,0,0,1,4.88-1.609l3.226,1.633A62.17,62.17,0,0,1,71.62,37.084a52.739,52.739,0,0,1,0,59.321,62.2,62.2,0,0,1-23.533,20.625l-3.226,1.63a3.631,3.631,0,0,1-4.883-1.606L36.7,110.566a3.636,3.636,0,0,1,1.612-4.883l3.262-1.639a47.944,47.944,0,0,0,18-15.787,38.207,38.207,0,0,0,0-42.99A47.638,47.638,0,0,0,41.578,29.481Z" transform="translate(71.869 28.571)"/>
    </g>
    <path id="_1998784dd81562d3238245a746ba8ad1" data-name="1998784dd81562d3238245a746ba8ad1" d="M147.392,40.561a14.549,14.549,0,0,1,12.753,7.547l.834,1.8,44.043,115.137.508,1.17h0l.405,1.222,14.509,37.929a14.548,14.548,0,0,1,1.715,28.954l-1.975.138-29.113.074a14.55,14.55,0,0,1-3.651-28.644l1.936-.357-7.485-19.566h-68.96l-7.43,19.424a14.549,14.549,0,0,1,.294,28.857l-1.974.138-18.518.047-.9.031h0l-.9-.025-8.8.021A14.549,14.549,0,0,1,72.4,205.54l1.941-.171L133.8,49.911A14.548,14.548,0,0,1,147.392,40.561Zm0,55.267-23.351,61.045h46.7ZM57.733,2.017a14.547,14.547,0,0,1,13.572,9.312l30.289,78.516L85.994,130l-.669-1.484h0l-5.9-15.281h-43.4l-5.9,15.283A14.548,14.548,0,0,1,2.984,118.039L44.16,11.327A14.548,14.548,0,0,1,57.733,2.017Zm0,54.964L47.253,84.135H68.206Z" transform="translate(1837.995 975.646)" fill="#212121"/>
    <path id="_1998784dd81562d3238245a746ba8ad1-2" data-name="1998784dd81562d3238245a746ba8ad1" d="M147.392,40.561a14.549,14.549,0,0,1,12.753,7.547l.834,1.8,44.043,115.137.508,1.17h0l.405,1.222,14.509,37.929a14.548,14.548,0,0,1,1.715,28.954l-1.975.138-29.113.074a14.55,14.55,0,0,1-3.651-28.644l1.936-.357-7.485-19.566h-68.96l-7.43,19.424a14.549,14.549,0,0,1,.294,28.857l-1.974.138-18.518.047-.9.031h0l-.9-.025-8.8.021A14.549,14.549,0,0,1,72.4,205.54l1.941-.171L133.8,49.911A14.548,14.548,0,0,1,147.392,40.561Zm0,55.267-23.351,61.045h46.7ZM57.733,2.017a14.547,14.547,0,0,1,13.572,9.312l30.289,78.516L85.994,130l-.669-1.484h0l-5.9-15.281h-43.4l-5.9,15.283A14.548,14.548,0,0,1,2.984,118.039L44.16,11.327A14.548,14.548,0,0,1,57.733,2.017Zm0,54.964L47.253,84.135H68.206Z" transform="translate(1841.995 973.646)" fill="#212121" opacity="0.14"/>
    <path id="Google_Docs-2" data-name="Google Docs" d="M252.911,72.1l-70-70a7,7,0,0,0-4.9-2.1H31A28,28,0,0,0,3,28V308.013a28,28,0,0,0,28,28H227.01a28,28,0,0,0,28-28V77a7,7,0,0,0-2.1-4.9ZM136.006,252.011H66a7,7,0,0,1,0-14h70a7,7,0,0,1,0,14Zm56-28H66a7,7,0,0,1,0-14H192.008a7,7,0,0,1,0,14Zm0-28H66a7,7,0,0,1,0-14H192.008a7,7,0,0,1,0,14Zm0-28H66a7,7,0,0,1,0-14H192.008a7,7,0,0,1,0,14Zm7-98a14,14,0,0,1-14-14V23.941L231.07,70Z" transform="translate(1563 929.992)" fill="#202020"/>
    <g id="Subtraction_7" data-name="Subtraction 7" transform="translate(1504.539 535.067)" fill="#3061aa">
      <path d="M 408.8613586425781 1169.35546875 C 394.9386596679688 1169.35546875 380.89794921875 1168.341186523438 367.1295166015625 1166.340576171875 C 353.5588073730469 1164.369018554688 339.9235229492188 1161.391845703125 326.6020812988281 1157.49169921875 C 313.4510803222656 1153.641845703125 300.2890930175781 1148.80029296875 287.4818115234375 1143.101318359375 C 274.8168029785156 1137.4658203125 262.1970825195312 1130.85791015625 249.9732208251953 1123.461059570312 C 237.8622283935547 1116.132690429688 225.8536529541016 1107.85693359375 214.2807922363281 1098.863159179688 C 202.7900848388672 1089.932739257812 191.4617919921875 1080.0869140625 180.6107940673828 1069.59912109375 C 169.8106536865234 1059.160766601562 159.2323760986328 1047.843994140625 149.1696624755859 1035.963012695312 C 139.1306610107422 1024.110717773438 129.3713684082031 1011.421325683594 120.1630859375 998.2474365234375 C 101.6775131225586 971.8017578125 84.89422607421875 942.7005615234375 70.27951049804688 911.7525634765625 C 55.52436828613281 880.50732421875 42.85065460205078 847.1024780273438 32.61008453369141 812.4660034179688 C 27.43579864501953 794.9637451171875 22.81308364868164 776.8945922851562 18.87036895751953 758.7606201171875 C 14.88322639465332 740.4215698242188 11.49579811096191 721.5736083984375 8.802083969116211 702.7398681640625 C 6.072798252105713 683.6607055664062 3.98951244354248 664.13232421875 2.609798192977905 644.6973266601562 C 1.209941148757935 624.9734497070312 0.5000839829444885 604.8638916015625 0.5000839829444885 584.9273071289062 C 0.5000839829444885 564.99072265625 1.209941148757935 544.8812866210938 2.609798192977905 525.157470703125 C 3.98951244354248 505.7224426269531 6.072798252105713 486.1941528320312 8.802083969116211 467.11474609375 C 11.49608421325684 448.2807312011719 14.88351249694824 429.4327392578125 18.87036895751953 411.0940246582031 C 22.8132266998291 392.9595947265625 27.43594169616699 374.8905944824219 32.61008453369141 357.3888854980469 C 42.85051345825195 322.7525939941406 55.52422714233398 289.3477478027344 70.27951049804688 258.102294921875 C 84.89451599121094 227.1540222167969 101.6777954101562 198.0530242919922 120.1630859375 171.6075897216797 C 129.3716583251953 158.43359375 139.1309356689453 145.7441558837891 149.1696624755859 133.8920135498047 C 159.23193359375 122.011589050293 169.8103637695312 110.6947326660156 180.6107940673828 100.2560195922852 C 191.4606628417969 89.76930236816406 202.7888031005859 79.92359161376953 214.2807922363281 70.99244689941406 C 225.8546600341797 61.99773406982422 237.8633728027344 53.72173309326172 249.9732208251953 46.39444732666016 C 262.1952209472656 38.99873352050781 274.81494140625 32.39059066772461 287.4818115234375 26.75387763977051 C 300.2890930175781 21.05516242980957 313.4510803222656 16.21359062194824 326.6020812988281 12.36344909667969 C 339.9235229492188 8.46373462677002 353.5589294433594 5.486591339111328 367.1295166015625 3.514877319335938 C 380.8970947265625 1.514305830001831 394.9376525878906 0.5000200867652893 408.8613586425781 0.5000200867652893 C 422.7852172851562 0.5000200867652893 436.8258056640625 1.514305830001831 450.5932312011719 3.514877319335938 C 464.1643676757812 5.486591339111328 477.7998046875 8.46373462677002 491.1207885742188 12.36344909667969 C 504.271240234375 16.21316337585449 517.4332275390625 21.05473518371582 530.2410888671875 26.75387763977051 C 542.9069213867188 32.39001846313477 555.5267944335938 38.99802017211914 567.7499389648438 46.39430618286133 C 579.8607788085938 53.72259140014648 591.869384765625 61.99844741821289 603.4420776367188 70.99244689941406 C 614.9324951171875 79.92230224609375 626.2608032226562 89.76802062988281 637.112060546875 100.2560195922852 C 647.9119262695312 110.6941604614258 658.4903564453125 122.0110168457031 668.5533447265625 133.8920135498047 C 678.5916748046875 145.7435913085938 688.3507690429688 158.4328765869141 697.5599365234375 171.6075897216797 C 716.0452270507812 198.0530242919922 732.828369140625 227.1540222167969 747.4432373046875 258.102294921875 C 762.1989135742188 289.3491516113281 774.8726806640625 322.7540283203125 785.1123657226562 357.3888854980469 C 790.2862548828125 374.8887329101562 794.908935546875 392.9577331542969 798.8521118164062 411.0940246582031 C 802.8392333984375 429.4328918457031 806.2266845703125 448.281005859375 808.9205322265625 467.11474609375 C 811.649658203125 486.1938781738281 813.7329711914062 505.7223205566406 815.1124877929688 525.157470703125 C 816.5123901367188 544.8797607421875 817.2222290039062 564.9891357421875 817.2222290039062 584.9273071289062 C 817.2222290039062 604.8652954101562 816.5123901367188 624.974853515625 815.1124877929688 644.6973266601562 C 813.7329711914062 664.1324462890625 811.649658203125 683.6607055664062 808.9205322265625 702.7398681640625 C 806.2266845703125 721.5741577148438 802.839111328125 740.4221801757812 798.8521118164062 758.7606201171875 C 794.90966796875 776.8948974609375 790.2869262695312 794.9638671875 785.1123657226562 812.4660034179688 C 774.8723754882812 847.101318359375 762.1986694335938 880.5061645507812 747.4432373046875 911.7525634765625 C 732.8282470703125 942.7012939453125 716.0451049804688 971.8023071289062 697.5599365234375 998.2474365234375 C 688.3515014648438 1011.421142578125 678.5922241210938 1024.110595703125 668.5533447265625 1035.963012695312 C 658.490234375 1047.844482421875 647.9118041992188 1059.161254882812 637.112060546875 1069.59912109375 C 626.2623901367188 1080.085571289062 614.9342041015625 1089.931396484375 603.4420776367188 1098.86328125 C 591.870361328125 1107.856201171875 579.86181640625 1116.132080078125 567.7499389648438 1123.461059570312 C 555.5255126953125 1130.858154296875 542.9058227539062 1137.466186523438 530.2410888671875 1143.101318359375 C 517.4359130859375 1148.799560546875 504.2739562988281 1153.64111328125 491.1207885742188 1157.49169921875 C 477.7976684570312 1161.392211914062 464.1622314453125 1164.369262695312 450.5932312011719 1166.340576171875 C 436.824951171875 1168.341186523438 422.7842407226562 1169.35546875 408.8613586425781 1169.35546875 Z M 409.301513671875 16.65087699890137 C 396.4502258300781 16.65087699890137 383.4880981445312 17.55644798278809 370.7752380371094 19.34230613708496 C 358.2376403808594 21.10316276550293 345.635498046875 23.76259231567383 333.3186645507812 27.24673461914062 C 321.1545104980469 30.6878776550293 308.97265625 35.01602172851562 297.1117858886719 40.11087799072266 C 285.3812255859375 45.14944839477539 273.6798095703125 51.06016159057617 262.3323669433594 57.67873382568359 C 251.0942230224609 64.23387908935547 239.9325103759766 71.64202117919922 229.1573638916016 79.69730377197266 C 218.4622192382812 87.69345092773438 207.8999481201172 96.51287841796875 197.7637939453125 105.9108810424805 C 187.6768035888672 115.2628784179688 177.7727966308594 125.4087371826172 168.3267974853516 136.0667419433594 C 158.9096527099609 146.691162109375 149.7232208251953 158.0775909423828 141.0226593017578 169.9095916748047 C 132.3265075683594 181.7365875244141 123.9168014526367 194.2787322998047 116.0275115966797 207.1878814697266 C 108.1202239990234 220.1260223388672 100.5465087890625 233.739013671875 93.51679992675781 247.6485900878906 C 86.46051025390625 261.6101684570312 79.78194427490234 276.2085876464844 73.66665649414062 291.0384521484375 C 67.51979827880859 305.9457397460938 61.795654296875 321.4444580078125 56.65365600585938 337.1037292480469 C 51.47137069702148 352.8900146484375 46.76165390014648 369.2041625976562 42.65508270263672 385.593017578125 C 38.50608444213867 402.1478881835938 34.86922836303711 419.1925964355469 31.84536933898926 436.2536010742188 C 28.78551292419434 453.5180053710938 26.28122711181641 471.2081604003906 24.40208435058594 488.8324584960938 C 22.49694061279297 506.6882934570312 21.18451309204102 524.938720703125 20.5012264251709 543.0765991210938 L 20.48179817199707 543.595458984375 L 21.00094032287598 543.595458984375 L 797.601806640625 543.595458984375 L 798.1209106445312 543.595458984375 L 798.1015014648438 543.0765991210938 C 797.4189453125 524.9512939453125 796.1066284179688 506.7008666992188 794.2012329101562 488.8324584960938 C 792.320068359375 471.2012939453125 789.815673828125 453.5112915039062 786.7576293945312 436.2536010742188 C 783.7332153320312 419.1920166015625 780.0962524414062 402.1473083496094 775.9478149414062 385.593017578125 C 771.8396606445312 369.200439453125 767.1295166015625 352.8862915039062 761.9482421875 337.1037292480469 C 756.80908203125 321.450439453125 751.0850830078125 305.9517211914062 744.9353637695312 291.0384521484375 C 738.8267822265625 276.2230224609375 732.1484985351562 261.6246032714844 725.0860595703125 247.6485900878906 C 718.0576782226562 233.7424468994141 710.4839477539062 220.1294555664062 702.5755004882812 207.1878814697266 C 694.681640625 194.2733001708984 686.2720947265625 181.7311553955078 677.5802001953125 169.9095916748047 C 668.8795166015625 158.0777282714844 659.6930541992188 146.6912994384766 650.2760620117188 136.0665893554688 C 640.82421875 125.403450012207 630.9201049804688 115.2575912475586 620.8389282226562 105.9108810424805 C 610.7000732421875 96.51116180419922 600.1378173828125 87.69173431396484 589.445068359375 79.69730377197266 C 578.6697998046875 71.64159393310547 567.5079345703125 64.23345184326172 556.2693481445312 57.67873382568359 C 544.9273681640625 51.06230545043945 533.2263793945312 45.1517333984375 521.4912109375 40.11087799072266 C 509.6252136230469 35.01445007324219 497.443359375 30.68644905090332 485.2840881347656 27.24673461914062 C 472.96435546875 23.76216316223145 460.3625183105469 21.10273361206055 447.828369140625 19.34230613708496 C 435.1139526367188 17.55644798278809 422.1516418457031 16.65087699890137 409.301513671875 16.65087699890137 Z" stroke="none"/>
      <path d="M 408.8613586425781 1 C 394.961669921875 1 380.9452209472656 2.0125732421875 367.2015075683594 4.0096435546875 C 353.6539306640625 5.97802734375 340.0416564941406 8.9501953125 326.7426452636719 12.84326171875 C 313.6122131347656 16.6875 300.4712524414062 21.5213623046875 287.68505859375 27.210693359375 C 275.0375366210938 32.8388671875 262.4365234375 39.43701171875 250.2320556640625 46.8221435546875 C 238.1392211914062 54.13916015625 226.1466674804688 62.404052734375 214.5875244140625 71.386962890625 C 203.109375 80.3077392578125 191.7947998046875 90.1417236328125 180.9583740234375 100.615478515625 C 170.1710815429688 111.041259765625 159.6040649414062 122.3458251953125 149.5510864257812 134.2152099609375 C 139.5225219726562 146.055419921875 129.7728271484375 158.732421875 120.5728149414062 171.8938598632812 C 102.1032104492188 198.317138671875 85.334228515625 227.3936157226562 70.73162841796875 258.3156127929688 C 55.98736572265625 289.5380249023438 43.3226318359375 322.9188842773438 33.08966064453125 357.5305786132812 C 27.9188232421875 375.0208740234375 23.299072265625 393.077880859375 19.35894775390625 411.2001342773438 C 15.37493896484375 429.5253295898438 11.98968505859375 448.3614501953125 9.29693603515625 467.1854248046875 C 6.56951904296875 486.2528686523438 4.48736572265625 505.769287109375 3.1085205078125 525.1927490234375 C 1.7093505859375 544.904296875 0.99993896484375 565.0018920898438 0.99993896484375 584.9273071289062 C 0.99993896484375 604.8529052734375 1.7093505859375 624.950439453125 3.1085205078125 644.661865234375 C 4.48736572265625 664.085205078125 6.56951904296875 683.6015625 9.29693603515625 702.669189453125 C 11.98907470703125 721.490478515625 15.3743896484375 740.3267211914062 19.35894775390625 758.6544189453125 C 23.2989501953125 776.7760009765625 27.91864013671875 794.8331298828125 33.08966064453125 812.3241577148438 C 43.32281494140625 846.9361572265625 55.98736572265625 880.31689453125 70.73162841796875 911.5391845703125 C 85.334228515625 942.46142578125 102.1032104492188 971.537841796875 120.5728149414062 997.9609985351562 C 129.7723999023438 1011.122314453125 139.5220947265625 1023.79931640625 149.5512084960938 1035.639892578125 C 159.6032104492188 1047.508178710938 170.1701049804688 1058.812744140625 180.9583740234375 1069.23974609375 C 191.7957763671875 1079.71435546875 203.1102294921875 1089.548217773438 214.5873413085938 1098.46826171875 C 226.1452026367188 1107.450317382812 238.137939453125 1115.715209960938 250.2320556640625 1123.032958984375 C 262.437255859375 1130.418823242188 275.0382080078125 1137.016967773438 287.68505859375 1142.644409179688 C 300.4713745117188 1148.334106445312 313.6120910644531 1153.16796875 326.7426452636719 1157.011840820312 C 340.04150390625 1160.905395507812 353.65380859375 1163.877563476562 367.2013549804688 1165.845825195312 C 380.9462280273438 1167.842895507812 394.962646484375 1168.85546875 408.8613586425781 1168.85546875 C 422.7602233886719 1168.85546875 436.7766418457031 1167.842895507812 450.5213623046875 1165.845825195312 C 464.0672302246094 1163.8779296875 477.6795043945312 1160.90576171875 490.980224609375 1157.011840820312 C 504.1115112304688 1153.167724609375 517.2523803710938 1148.333862304688 530.037841796875 1142.644409179688 C 542.6834716796875 1137.017700195312 555.2845458984375 1130.41943359375 567.4910888671875 1123.032958984375 C 579.5863647460938 1115.714111328125 591.5789184570312 1107.449462890625 603.13525390625 1098.46826171875 C 614.6129150390625 1089.5478515625 625.927490234375 1079.7138671875 636.7645263671875 1069.23974609375 C 647.5518188476562 1058.81396484375 658.11865234375 1047.50927734375 668.1718139648438 1035.639892578125 C 678.2010498046875 1023.798889160156 687.9508056640625 1011.121887207031 697.1500854492188 997.9609985351562 C 715.6189575195312 971.5390014648438 732.387939453125 942.4625854492188 746.9910888671875 911.5391845703125 C 761.7356567382812 880.3157348632812 774.4000854492188 846.93505859375 784.6328125 812.3241577148438 C 789.8040771484375 794.8331298828125 794.423828125 776.7760009765625 798.3633422851562 758.6544189453125 C 802.3482055664062 740.3260498046875 805.733642578125 721.4898681640625 808.4256591796875 702.669189453125 C 811.1527709960938 683.603759765625 813.2346801757812 664.087158203125 814.61376953125 644.661865234375 C 816.0128173828125 624.9525756835938 816.7221069335938 604.8548583984375 816.7221069335938 584.9273071289062 C 816.7221069335938 564.999755859375 816.0128173828125 544.9020385742188 814.61376953125 525.1927490234375 C 813.2346801757812 505.7674560546875 811.1527709960938 486.2508544921875 808.4256591796875 467.1854248046875 C 805.7335205078125 448.3644409179688 802.3480834960938 429.5283203125 798.3633422851562 411.2001342773438 C 794.423095703125 393.076171875 789.8033447265625 375.01904296875 784.6328125 357.5305786132812 C 774.400390625 322.9202880859375 761.7357788085938 289.5396118164062 746.9910888671875 258.3156127929688 C 732.3878173828125 227.3920288085938 715.6187744140625 198.3156127929688 697.1500854492188 171.8938598632812 C 687.9505004882812 158.7330322265625 678.200927734375 146.0560302734375 668.1718139648438 134.2152099609375 C 658.1195068359375 122.3466796875 647.5526733398438 111.0421142578125 636.7645263671875 100.615478515625 C 625.9263916015625 90.14013671875 614.6119384765625 80.3062744140625 603.1353759765625 71.386962890625 C 591.5775146484375 62.4049072265625 579.5850830078125 54.14013671875 567.4910888671875 46.8221435546875 C 555.2845458984375 39.4359130859375 542.6834716796875 32.837646484375 530.037841796875 27.210693359375 C 517.2515258789062 21.5211181640625 504.1106567382812 16.687255859375 490.980224609375 12.84326171875 C 477.6817932128906 8.9501953125 464.0693664550781 5.9781494140625 450.521240234375 4.0096435546875 C 436.7776489257812 2.0125732421875 422.76123046875 1 408.8613586425781 1 M 798.6401977539062 544.095458984375 L 19.9625244140625 544.095458984375 L 20.00164794921875 543.057861328125 C 20.68505859375 524.9113159179688 21.99822998046875 506.6492919921875 23.9046630859375 488.779296875 C 25.78564453125 471.140869140625 28.29150390625 453.4393310546875 31.35296630859375 436.1663208007812 C 34.37896728515625 419.0938720703125 38.01837158203125 402.0377197265625 42.17010498046875 385.4716186523438 C 46.27880859375 369.0731811523438 50.991943359375 352.747314453125 56.17852783203125 336.9475708007812 C 61.32452392578125 321.276611328125 67.05291748046875 305.7662963867188 73.20452880859375 290.8477172851562 C 79.3250732421875 276.0050048828125 86.00909423828125 261.3947143554688 93.0706787109375 247.4230346679688 C 100.1065063476562 233.5012817382812 107.6868286132812 219.8765869140625 115.6007690429688 206.9271850585938 C 123.496826171875 194.0071411132812 131.9143676757812 181.452880859375 140.6199340820312 169.61328125 C 149.3286743164062 157.7701416015625 158.524658203125 146.3717041015625 167.9525146484375 135.73486328125 C 177.4102172851562 125.0638427734375 187.3258056640625 114.90625 197.4239501953125 105.5443115234375 C 207.5733642578125 96.134033203125 218.1493530273438 87.302978515625 228.8580932617188 79.296630859375 C 239.648681640625 71.22998046875 250.8262329101562 63.811279296875 262.0803833007812 57.2467041015625 C 273.445068359375 50.6181640625 285.1649169921875 44.6981201171875 296.9143676757812 39.6512451171875 C 308.7952270507812 34.5479736328125 320.9974975585938 30.2127685546875 333.1826477050781 26.7655029296875 C 345.5215148925781 23.2752685546875 358.1459350585938 20.6112060546875 370.7055053710938 18.84716796875 C 383.4414978027344 17.0579833984375 396.4270935058594 16.15087890625 409.301513671875 16.15087890625 C 422.1748046875 16.15087890625 435.1605224609375 17.0579833984375 447.89794921875 18.84716796875 C 460.4548034667969 20.61083984375 473.0790710449219 23.2750244140625 485.4200744628906 26.7655029296875 C 497.6012268066406 30.21142578125 509.8038024902344 34.546875 521.6886596679688 39.6512451171875 C 533.442626953125 44.700439453125 545.162109375 50.6204833984375 556.5213623046875 57.2467041015625 C 567.77734375 63.811767578125 578.9552001953125 71.23046875 589.7445068359375 79.2967529296875 C 600.4515380859375 87.302001953125 611.0275268554688 96.1329345703125 621.1788330078125 105.5443115234375 C 631.2711181640625 114.90087890625 641.1866455078125 125.0584716796875 650.650390625 135.73486328125 C 660.0775146484375 146.3712768554688 669.2734985351562 157.7695922851562 677.9830932617188 169.61328125 C 686.683349609375 181.4462890625 695.1009521484375 194.0004272460938 703.0020751953125 206.9271850585938 C 710.91796875 219.880615234375 718.4981079101562 233.5053100585938 725.5323486328125 247.4230346679688 C 732.6009521484375 261.4111328125 739.2845458984375 276.0214233398438 745.3973388671875 290.8477172851562 C 751.5519409179688 305.772705078125 757.2803955078125 321.2830200195312 762.42333984375 336.94775390625 C 767.6083984375 352.7418823242188 772.32177734375 369.0675659179688 776.4328002929688 385.471435546875 C 780.5841064453125 402.0371704101562 784.2235107421875 419.0933227539062 787.2500610351562 436.1664428710938 C 790.3096313476562 453.4331665039062 792.815673828125 471.1347045898438 794.698486328125 488.779296875 C 796.6051025390625 506.6591796875 797.9180908203125 524.921142578125 798.60107421875 543.057861328125 L 798.6401977539062 544.095458984375 M 408.8613586425781 0 C 422.8086547851562 0 436.8735046386719 1.0159912109375 450.6650695800781 3.02001953125 C 464.2580871582031 4.9949951171875 477.9168090820312 7.97705078125 491.26123046875 11.883544921875 C 504.43408203125 15.739990234375 517.616943359375 20.58935546875 530.4443359375 26.297119140625 C 543.1279296875 31.94091796875 555.7666625976562 38.5587158203125 568.0087890625 45.966552734375 C 580.1367797851562 53.30517578125 592.16162109375 61.5924072265625 603.7489624023438 70.597412109375 C 615.253662109375 79.53857421875 626.5955200195312 89.3961181640625 637.4595336914062 99.896484375 C 648.271240234375 110.3460693359375 658.861083984375 121.675048828125 668.9349365234375 133.56884765625 C 678.9839477539062 145.433349609375 688.752685546875 158.135009765625 697.9696655273438 171.321044921875 C 716.4710693359375 197.7894287109375 733.2683715820312 226.9150390625 747.8953857421875 257.8886108398438 C 762.6619262695312 289.1588745117188 775.3447875976562 322.5877075195312 785.591796875 357.2470092773438 C 790.76953125 374.7595825195312 795.3952026367188 392.8407592773438 799.3405151367188 410.9877319335938 C 803.3303833007812 429.3392944335938 806.7200927734375 448.1992797851562 809.41552734375 467.0438842773438 C 812.146240234375 486.13427734375 814.2306518554688 505.6746215820312 815.6112060546875 525.1218872070312 C 817.0117797851562 544.8534545898438 817.7221069335938 564.9750366210938 817.7221069335938 584.9273071289062 C 817.7221069335938 604.8797607421875 817.0117797851562 625.0011596679688 815.6112060546875 644.7327270507812 C 814.2306518554688 664.1800537109375 812.146240234375 683.7203369140625 809.41552734375 702.8107299804688 C 806.7200927734375 721.6554565429688 803.3303833007812 740.5153198242188 799.3405151367188 758.8668823242188 C 795.3953857421875 777.0140380859375 790.76953125 795.0950317382812 785.591796875 812.6077270507812 C 775.3447875976562 847.266845703125 762.6619262695312 880.696044921875 747.8953857421875 911.9661865234375 C 733.2684936523438 942.939697265625 716.4712524414062 972.0653076171875 697.9696655273438 998.5338745117188 C 688.7520751953125 1011.720886230469 678.9833984375 1024.422485351562 668.9349365234375 1036.2861328125 C 658.8606567382812 1048.180541992188 648.2708129882812 1059.509765625 637.4595336914062 1069.958740234375 C 626.5958251953125 1080.458740234375 615.2537841796875 1090.316284179688 603.7489624023438 1099.2578125 C 592.16162109375 1108.263061523438 580.1367797851562 1116.550048828125 568.0087890625 1123.888549804688 C 555.765625 1131.297119140625 543.127197265625 1137.914794921875 530.4443359375 1143.557983398438 C 517.616943359375 1149.26611328125 504.43408203125 1154.115356445312 491.26123046875 1157.971557617188 C 477.9169311523438 1161.878173828125 464.2583618164062 1164.860595703125 450.6650695800781 1166.83544921875 C 436.8735046386719 1168.83935546875 422.8086547851562 1169.85546875 408.8613586425781 1169.85546875 C 394.9143676757812 1169.85546875 380.849365234375 1168.83935546875 367.0576477050781 1166.83544921875 C 353.4646606445312 1164.860595703125 339.8060913085938 1161.87841796875 326.461669921875 1157.971557617188 C 313.2895202636719 1154.115600585938 300.1063842773438 1149.266357421875 287.2785034179688 1143.557983398438 C 274.5939331054688 1137.913818359375 261.9555053710938 1131.296142578125 249.71435546875 1123.888549804688 C 237.5862426757812 1116.550170898438 225.5615234375 1108.26318359375 213.9738159179688 1099.2578125 C 202.4682006835938 1090.315673828125 191.1265258789062 1080.458129882812 180.2633666992188 1069.958740234375 C 169.4519653320312 1059.509399414062 158.862060546875 1048.180419921875 148.7880859375 1036.2861328125 C 138.7398071289062 1024.4228515625 128.970947265625 1011.72119140625 119.7532348632812 998.5338745117188 C 101.251220703125 972.0645751953125 84.45379638671875 942.9390258789062 69.827392578125 911.9661865234375 C 55.06121826171875 880.6974487304688 42.37823486328125 847.268310546875 32.13067626953125 812.6077270507812 C 26.95263671875 795.0928955078125 22.32696533203125 777.0120239257812 18.38177490234375 758.8668823242188 C 14.39239501953125 740.5170288085938 11.002685546875 721.656982421875 8.30706787109375 702.8107299804688 C 5.57635498046875 683.7210083007812 3.49163818359375 664.180908203125 2.111083984375 644.7327270507812 C 0.71038818359375 624.999755859375 -6.103515625e-05 604.8782958984375 -6.103515625e-05 584.9273071289062 C -6.103515625e-05 564.976318359375 0.71038818359375 544.8550415039062 2.111083984375 525.1218872070312 C 3.49163818359375 505.6738891601562 5.57635498046875 486.1336059570312 8.30706787109375 467.0438842773438 C 11.0029296875 448.1973266601562 14.39251708984375 429.337158203125 18.38177490234375 410.9877319335938 C 22.32696533203125 392.8425903320312 26.95263671875 374.7615966796875 32.13067626953125 357.2470092773438 C 42.37823486328125 322.5863037109375 55.06121826171875 289.1572875976562 69.827392578125 257.8886108398438 C 84.45379638671875 226.9161376953125 101.251220703125 197.7905883789062 119.7532348632812 171.321044921875 C 128.9705200195312 158.1347045898438 138.7391967773438 145.4329833984375 148.7880859375 133.56884765625 C 158.8615112304688 121.6754150390625 169.4513549804688 110.34619140625 180.2633666992188 99.896484375 C 191.1266479492188 89.396728515625 202.468505859375 79.539306640625 213.9738159179688 70.597412109375 C 225.5615234375 61.59228515625 237.5862426757812 53.3050537109375 249.71435546875 45.966552734375 C 261.9547729492188 38.5596923828125 274.5932006835938 31.9420166015625 287.2785034179688 26.297119140625 C 300.1063842773438 20.589111328125 313.2895202636719 15.7398681640625 326.461669921875 11.883544921875 C 339.8063659667969 7.97705078125 353.4648132324219 4.9949951171875 367.0576477050781 3.02001953125 C 380.849365234375 1.0159912109375 394.9143676757812 0 408.8613586425781 0 Z M 797.601806640625 543.095458984375 C 796.919677734375 524.980712890625 795.6082153320312 506.7418823242188 793.7041015625 488.8853149414062 C 791.8237915039062 471.2645874023438 789.3211059570312 453.5858764648438 786.265380859375 436.3408813476562 C 783.2431030273438 419.2918701171875 779.608642578125 402.2587280273438 775.4627685546875 385.714599609375 C 771.3572387695312 369.3324584960938 766.650390625 353.0299072265625 761.4732055664062 337.2595825195312 C 756.3377685546875 321.6180419921875 750.6181030273438 306.1311645507812 744.4729614257812 291.22900390625 C 738.3689575195312 276.42431640625 731.6959228515625 261.8375854492188 724.6397705078125 247.8740234375 C 717.6177978515625 233.98046875 710.05078125 220.3794555664062 702.1488037109375 207.4486083984375 C 694.2623901367188 194.5460205078125 685.8606567382812 182.0155639648438 677.1773681640625 170.2057495117188 C 668.485107421875 158.3854370117188 659.3082275390625 147.0110473632812 649.9019775390625 136.398193359375 C 640.4599609375 125.7462158203125 630.5673828125 115.6121826171875 620.4989624023438 106.277587890625 C 610.3723754882812 96.88916015625 599.8236694335938 88.0811767578125 589.1456298828125 80.0975341796875 C 578.386474609375 72.0538330078125 567.2406616210938 64.656494140625 556.0175170898438 58.110595703125 C 544.6936645507812 51.5048828125 533.0108032226562 45.603271484375 521.2939453125 40.5701904296875 C 509.4468078613281 35.48193359375 497.2853698730469 31.1612548828125 485.14794921875 27.727783203125 C 472.8505249023438 24.2496337890625 460.2708129882812 21.5948486328125 447.7587890625 19.83740234375 C 435.0670776367188 18.0546875 422.1282348632812 17.15087890625 409.301513671875 17.15087890625 C 396.4736633300781 17.15087890625 383.5349426269531 18.0546875 370.8446655273438 19.83740234375 C 358.330810546875 21.594970703125 345.7509460449219 24.2496337890625 333.4548034667969 27.727783203125 C 321.3128051757812 31.1627197265625 309.1513671875 35.4833984375 297.30908203125 40.5701904296875 C 285.5962524414062 45.601318359375 273.9130859375 51.5029296875 262.584228515625 58.110595703125 C 251.3630981445312 64.6558837890625 240.2172241210938 72.053466796875 229.456787109375 80.0975341796875 C 218.775390625 88.0836181640625 208.226806640625 96.891845703125 198.1038208007812 106.277587890625 C 188.0275268554688 115.6195068359375 178.13525390625 125.7535400390625 168.700927734375 136.398193359375 C 159.2936401367188 147.01171875 150.116943359375 158.3860473632812 141.425537109375 170.2057495117188 C 132.737060546875 182.0221557617188 124.3353881835938 194.5526123046875 116.4541015625 207.4486083984375 C 108.55419921875 220.374755859375 100.987060546875 233.9758911132812 93.96307373046875 247.8740234375 C 86.91180419921875 261.825439453125 80.23876953125 276.4122924804688 74.12896728515625 291.22900390625 C 67.98681640625 306.124755859375 62.26708984375 321.611572265625 57.128662109375 337.2595825195312 C 51.94952392578125 353.03662109375 47.24310302734375 369.3391723632812 43.14007568359375 385.714599609375 C 38.99334716796875 402.2606201171875 35.35906982421875 419.2937622070312 32.337646484375 436.3408813476562 C 29.27996826171875 453.5928955078125 26.77734375 471.2713012695312 24.89910888671875 488.8853149414062 C 22.99505615234375 506.732177734375 21.68353271484375 524.97119140625 21.00091552734375 543.095458984375 L 797.601806640625 543.095458984375 Z" stroke="none" fill="#707070"/>
    </g>
    <path id="Subtraction_12" data-name="Subtraction 12" d="M408.261,0a270.131,270.131,0,0,0-40.434,3.055,277.125,277.125,0,0,0-39.311,8.971,296.3,296.3,0,0,0-38,14.6A326.877,326.877,0,0,0,254,46.572a367.621,367.621,0,0,0-34.83,25,417.779,417.779,0,0,0-32.965,29.767c-10.6,10.623-21,22.146-30.914,34.247-9.9,12.074-19.545,25.007-28.677,38.44S108.652,201.7,100.36,216.369c-8.307,14.7-16.263,30.164-23.646,45.964-7.413,15.86-14.429,32.445-20.854,49.294-6.462,16.947-12.476,34.556-17.873,52.338-5.444,17.933-10.393,36.469-14.709,55.094C18.917,437.875,15.1,457.242,11.92,476.62,8.706,496.232,6.075,516.332,4.1,536.363,2.1,556.674.717,577.412,0,598H816.523c-.718-20.6-2.1-41.342-4.1-61.637-1.976-20.033-4.607-40.133-7.821-59.743-3.177-19.38-7-38.747-11.358-57.562-4.315-18.623-9.264-37.159-14.709-55.094-5.4-17.781-11.411-35.389-17.874-52.338-6.422-16.842-13.437-33.427-20.853-49.294-7.384-15.8-15.34-31.264-23.647-45.964-8.292-14.67-17.126-28.917-26.256-42.345s-18.788-26.375-28.677-38.44c-9.918-12.1-20.319-23.624-30.914-34.247a417.723,417.723,0,0,0-32.965-29.767,367.485,367.485,0,0,0-34.83-25,326.852,326.852,0,0,0-36.51-19.944,296.372,296.372,0,0,0-38-14.6A277.125,277.125,0,0,0,448.7,3.055,270.131,270.131,0,0,0,408.261,0ZM20.04,583.631c.682-19.606,1.994-39.347,3.9-58.674,1.879-19.071,4.381-38.206,7.437-56.872,3.018-18.438,6.652-36.874,10.8-54.8,4.105-17.733,8.811-35.379,13.987-52.446,5.132-16.924,10.85-33.686,17-49.822,6.109-16.037,12.78-31.825,19.83-46.925,7.027-15.05,14.592-29.772,22.487-43.755,7.884-13.965,16.284-27.527,24.966-40.31s17.86-25.1,27.27-36.592c9.428-11.517,19.319-22.486,29.4-32.6A397.627,397.627,0,0,1,228.454,82.5a349.7,349.7,0,0,1,33.121-23.8,310.462,310.462,0,0,1,34.718-18.986,281.575,281.575,0,0,1,36.137-13.9,263.331,263.331,0,0,1,37.382-8.54,255.645,255.645,0,0,1,76.9,0,263.339,263.339,0,0,1,37.382,8.54,281.607,281.607,0,0,1,36.138,13.9A310.407,310.407,0,0,1,554.948,58.7a349.49,349.49,0,0,1,33.121,23.8,397.677,397.677,0,0,1,31.347,28.336c10.071,10.108,19.962,21.077,29.4,32.6,9.406,11.488,18.581,23.8,27.27,36.592s17.082,26.345,24.966,40.31c7.9,13.988,15.463,28.71,22.487,43.755,7.05,15.1,13.722,30.889,19.83,46.925,6.144,16.133,11.863,32.9,17,49.822,5.177,17.073,9.883,34.718,13.987,52.446,4.145,17.908,7.779,36.345,10.8,54.8,3.055,18.664,5.558,37.8,7.437,56.872,1.9,19.325,3.216,39.066,3.9,58.674Z" transform="translate(1505.738 495.921)" fill="#3061aa"/>
    <g id="Group_8" data-name="Group 8" transform="translate(9 15)">
      <path id="_2d71a63c2b5ecbca258310458eb1d420" data-name="2d71a63c2b5ecbca258310458eb1d420" d="M6.885,211.45a23.575,23.575,0,0,0,33.348,33.332l77.4-77.4L84.283,134.052l-77.4,77.4ZM200.324,68,234,50.572l17.664-34.118L235.212,0,201.094,17.664,183.666,51.342,142.618,92.39l16.658,16.658Zm7.37,89.467c-1.069-.063-2.09-.314-3.174-.314a46.763,46.763,0,0,0-16.3,3.064L91.449,63.443a46.763,46.763,0,0,0,3.064-16.3c0-1.084-.251-2.106-.314-3.174A46.676,46.676,0,0,0,27.157,4.715L58.478,36.035a15.379,15.379,0,0,1,3.536,5.658A15.714,15.714,0,0,1,36.257,58.257L4.936,26.936A46.676,46.676,0,0,0,44.193,93.978c1.069.063,2.09.314,3.174.314a46.763,46.763,0,0,0,16.3-3.064L160.439,188a46.761,46.761,0,0,0-3.064,16.3c0,1.084.251,2.106.314,3.175A46.676,46.676,0,0,0,224.73,246.73L193.41,215.41a15.378,15.378,0,0,1-3.536-5.658,15.714,15.714,0,0,1,25.757-16.564l31.321,31.321a46.676,46.676,0,0,0-39.257-67.042Z" transform="translate(1796.183 1238.922)" fill="#e4e4e4" opacity="0.07"/>
      <path id="_2d71a63c2b5ecbca258310458eb1d420-2" data-name="2d71a63c2b5ecbca258310458eb1d420" d="M6.885,211.45a23.575,23.575,0,0,0,33.348,33.332l77.4-77.4L84.283,134.052l-77.4,77.4ZM200.324,68,234,50.572l17.664-34.118L235.212,0,201.094,17.664,183.666,51.342,142.618,92.39l16.658,16.658Zm7.37,89.467c-1.069-.063-2.09-.314-3.174-.314a46.763,46.763,0,0,0-16.3,3.064L91.449,63.443a46.763,46.763,0,0,0,3.064-16.3c0-1.084-.251-2.106-.314-3.174A46.676,46.676,0,0,0,27.157,4.715L58.478,36.035a15.379,15.379,0,0,1,3.536,5.658A15.714,15.714,0,0,1,36.257,58.257L4.936,26.936A46.676,46.676,0,0,0,44.193,93.978c1.069.063,2.09.314,3.174.314a46.763,46.763,0,0,0,16.3-3.064L160.439,188a46.761,46.761,0,0,0-3.064,16.3c0,1.084.251,2.106.314,3.175A46.676,46.676,0,0,0,224.73,246.73L193.41,215.41a15.378,15.378,0,0,1-3.536-5.658,15.714,15.714,0,0,1,25.757-16.564l31.321,31.321a46.676,46.676,0,0,0-39.257-67.042Z" transform="translate(1788.183 1241.922)" fill="#fff"/>
    </g>
  </g>
</svg>
